<?xml version="1.0" encoding="UTF-8"?>
<svg xmlns="http://www.w3.org/2000/svg" xmlns:xlink="http://www.w3.org/1999/xlink" width="272pt" height="92pt" viewBox="0 0 272 92" version="1.1">
<g id="surface1">
<path style=" stroke:none;fill-rule:nonzero;fill:rgb(91.764706%,26.27451%,20.784314%);fill-opacity:1;" d="M 120.921875 46.917969 C 120.921875 51.945312 113.171875 55.648438 103.65625 55.648438 C 94.144531 55.648438 86.394531 51.945312 86.394531 46.917969 C 86.394531 41.855469 94.144531 38.183594 103.65625 38.183594 C 113.171875 38.183594 120.921875 41.855469 120.921875 46.917969 Z M 113.363281 46.917969 C 113.363281 43.777344 108.871094 41.625 103.65625 41.625 C 98.445312 41.625 93.949219 43.777344 93.949219 46.917969 C 93.949219 50.027344 98.445312 52.207031 103.65625 52.207031 C 108.871094 52.207031 113.363281 50.023438 113.363281 46.917969 Z M 113.363281 46.917969 "/>
<path style=" stroke:none;fill-rule:nonzero;fill:rgb(98.431373%,73.72549%,1.960784%);fill-opacity:1;" d="M 158.167969 46.917969 C 158.167969 51.945312 150.417969 55.648438 140.902344 55.648438 C 131.390625 55.648438 123.640625 51.945312 123.640625 46.917969 C 123.640625 41.859375 131.390625 38.183594 140.902344 38.183594 C 150.417969 38.183594 158.167969 41.855469 158.167969 46.917969 Z M 150.613281 46.917969 C 150.613281 43.777344 146.117188 41.625 140.902344 41.625 C 135.691406 41.625 131.195312 43.777344 131.195312 46.917969 C 131.195312 50.027344 135.691406 52.207031 140.902344 52.207031 C 146.117188 52.207031 150.613281 50.023438 150.613281 46.917969 Z M 150.613281 46.917969 "/>
<path style=" stroke:none;fill-rule:nonzero;fill:rgb(25.882353%,52.156863%,95.686275%);fill-opacity:1;" d="M 193.863281 38.710938 L 193.863281 54.390625 C 193.863281 60.839844 186.367188 63.472656 177.507812 63.472656 C 169.164062 63.472656 164.144531 60.640625 162.25 58.328125 L 168.832031 56.9375 C 170.003906 58.359375 172.875 60.035156 177.5 60.035156 C 183.171875 60.035156 186.6875 58.257812 186.6875 54.917969 L 186.6875 53.660156 L 186.421875 53.660156 C 184.730469 54.71875 181.472656 55.644531 177.359375 55.644531 C 168.753906 55.644531 160.871094 51.84375 160.871094 46.949219 C 160.871094 42.019531 168.753906 38.183594 177.359375 38.183594 C 181.464844 38.183594 184.722656 39.109375 186.421875 40.136719 L 186.6875 40.136719 L 186.6875 38.714844 L 193.863281 38.714844 Z M 187.222656 46.949219 C 187.222656 43.875 183.179688 41.625 178.035156 41.625 C 172.820312 41.625 168.449219 43.875 168.449219 46.949219 C 168.449219 49.992188 172.820312 52.207031 178.035156 52.207031 C 183.179688 52.207031 187.222656 49.992188 187.222656 46.949219 Z M 187.222656 46.949219 "/>
<path style=" stroke:none;fill-rule:nonzero;fill:rgb(20.392157%,65.882353%,32.54902%);fill-opacity:1;" d="M 205.695312 29.523438 L 205.695312 55.113281 L 198.324219 55.113281 L 198.324219 29.523438 Z M 205.695312 29.523438 "/>
<path style=" stroke:none;fill-rule:nonzero;fill:rgb(91.764706%,26.27451%,20.784314%);fill-opacity:1;" d="M 234.421875 49.792969 L 240.289062 51.777344 C 238.394531 53.195312 233.832031 55.644531 225.949219 55.644531 C 216.171875 55.644531 208.871094 51.8125 208.871094 46.914062 C 208.871094 41.71875 216.234375 38.179688 225.105469 38.179688 C 234.035156 38.179688 238.402344 41.789062 239.832031 43.734375 L 240.617188 44.726562 L 217.609375 49.5625 C 219.371094 51.316406 222.109375 52.207031 225.949219 52.207031 C 229.796875 52.207031 232.46875 51.246094 234.421875 49.792969 Z M 216.367188 46.648438 L 231.746094 43.410156 C 230.898438 42.320312 228.355469 41.558594 225.359375 41.558594 C 221.519531 41.558594 216.171875 43.28125 216.367188 46.648438 Z M 216.367188 46.648438 "/>
<path style=" stroke:none;fill-rule:nonzero;fill:rgb(25.882353%,52.156863%,95.686275%);fill-opacity:1;" d="M 58.488281 44.644531 L 58.488281 40.941406 L 83.09375 40.941406 C 83.335938 41.585938 83.460938 42.351562 83.460938 43.175781 C 83.460938 45.957031 81.960938 49.394531 77.136719 51.84375 C 72.441406 54.324219 66.441406 55.644531 58.496094 55.644531 C 43.769531 55.644531 31.382812 49.558594 31.382812 42.085938 C 31.382812 34.613281 43.769531 28.527344 58.496094 28.527344 C 66.644531 28.527344 72.449219 30.148438 76.808594 32.265625 L 71.65625 34.878906 C 68.53125 33.390625 64.292969 32.234375 58.488281 32.234375 C 47.734375 32.234375 39.324219 36.628906 39.324219 42.085938 C 39.324219 47.542969 47.734375 51.941406 58.488281 51.941406 C 65.464844 51.941406 69.4375 50.519531 71.984375 49.226562 C 74.046875 48.179688 75.40625 46.683594 75.941406 44.640625 Z M 58.488281 44.644531 "/>
</g>
</svg>
